<svg xmlns="http://www.w3.org/2000/svg" width="41.805" height="45" viewBox="0 0 41.805 45">
  <g id="プレゼントのフリーアイコン素材" transform="translate(-18.178)">
    <path id="パス_38" data-name="パス 38" d="M55.862,12.319,52.4,12.3c3.058-1.884,4.423-5.533,3.065-8.533A6.661,6.661,0,0,0,49.394,0a6.794,6.794,0,0,0-3.275.841,17.5,17.5,0,0,0-5.488,4.865l-.073.095q-.316.421-.6.841c-.077.112-.155.223-.231.337s-.157.248-.235.373c-.14.22-.282.434-.418.662A18.89,18.89,0,0,0,32.042.841,6.794,6.794,0,0,0,28.767,0,6.661,6.661,0,0,0,22.7,3.768a6.651,6.651,0,0,0,1.682,7.449,8.073,8.073,0,0,0,1.378,1.1H18.178v9.44a.343.343,0,0,0,.342.344H36.47V12.382h5.221V22.1h17.95a.343.343,0,0,0,.342-.344V12.319ZM33.954,9.943a13.25,13.25,0,0,1-5.539-1.088A3.482,3.482,0,0,1,26.663,7.14,1.994,1.994,0,0,1,26.6,5.554a2.418,2.418,0,0,1,2.168-1.243,2.529,2.529,0,0,1,1.226.317A13.833,13.833,0,0,1,34.69,9.1c.172.259.34.526.5.8C34.793,9.927,34.379,9.943,33.954,9.943ZM51.5,7.14a3.483,3.483,0,0,1-1.753,1.715,13.249,13.249,0,0,1-5.539,1.088c-.376,0-.739-.016-1.1-.037-.05-.005-.1-.007-.149-.014a14.411,14.411,0,0,1,5.205-5.264,2.53,2.53,0,0,1,1.227-.317,2.418,2.418,0,0,1,2.168,1.243A1.993,1.993,0,0,1,51.5,7.14Z" transform="translate(0 0)" fill="#0060a7"/>
    <path id="パス_39" data-name="パス 39" d="M76.16,295.552a5.015,5.015,0,0,0,5.015,5.015h8.258v-20.5H76.16Z" transform="translate(-52.856 -255.567)" fill="#0060a7"/>
    <path id="パス_40" data-name="パス 40" d="M285.7,300.567h8.258a5.015,5.015,0,0,0,5.015-5.015v-15.49H285.7v20.5Z" transform="translate(-244.116 -255.567)" fill="#0060a7"/>
  </g>
</svg>
