<svg xmlns="http://www.w3.org/2000/svg" width="46.868" height="45" viewBox="0 0 46.868 45">
  <g id="街のアイコン2" transform="translate(-7.86 -22.583)">
    <path id="パス_19" data-name="パス 19" d="M44.465,52.8V32.369H32.848V21.553H28.885V18.045h-1.2V15.009H24.528V10.2h-1.4v4.807H19.988v3.036h-1.2v3.507H14.822V27.2H2.4V52.8H0v2.4H46.868V52.8ZM8.311,48.492h-1.8v-1.8h1.8Zm0-3.812h-1.8v-1.8h1.8Zm0-3.812h-1.8v-1.8h1.8Zm0-3.813h-1.8v-1.8h1.8Zm0-3.813h-1.8v-1.8h1.8ZM10.8,53.017H8.467V50.682H10.8Zm2.017-4.526h-1.8v-1.8h1.8Zm0-3.812h-1.8v-1.8h1.8Zm0-3.812h-1.8v-1.8h1.8Zm0-3.813h-1.8v-1.8h1.8Zm0-3.813h-1.8v-1.8h1.8Zm10.115-7.416h1.8v1.8h-1.8Zm0,3.812h1.8v1.8h-1.8Zm0,3.814h1.8v1.8h-1.8Zm0,3.811h1.8v1.8h-1.8Zm0,3.813h1.8v1.8h-1.8Zm0,3.813h1.8v1.8h-1.8Zm-2.1,1.8h-1.8v-1.8h1.8Zm0-3.813h-1.8v-1.8h1.8Zm0-3.812h-1.8v-1.8h1.8Zm0-3.813h-1.8v-1.8h1.8Zm0-3.812h-1.8v-1.8h1.8Zm0-3.813h-1.8v-1.8h1.8Zm4.219,25.391H22.712v-3.97h2.336Zm3.595-6.328h-1.8v-1.8h1.8Zm0-3.813h-1.8v-1.8h1.8Zm0-3.812h-1.8v-1.8h1.8Zm0-3.813h-1.8v-1.8h1.8Zm0-3.812h-1.8v-1.8h1.8Zm0-3.813h-1.8v-1.8h1.8ZM38.5,52.8H36.163V49.733H38.5Zm1.76-5.685H34.25V46.065h6.009Zm0-3.069H34.25V43h6.009Zm0-3.069H34.25V39.928h6.009Zm0-3.069H34.25V36.858h6.009Z" transform="translate(7.86 12.381)" fill="#0060a7"/>
  </g>
</svg>
