<svg xmlns="http://www.w3.org/2000/svg" width="43.658" height="45" viewBox="0 0 43.658 45">
  <g id="お金を受け取るアイコン_円編" data-name="お金を受け取るアイコン　円編" transform="translate(-7.636 0.002)">
    <path id="パス_61" data-name="パス 61" d="M26.789,261.18h7.348a2.693,2.693,0,0,0,0-5.386H23.449c-6.682,0-8.8,2.805-11.136,5.161L8.07,264.69a1.279,1.279,0,0,0-.434.959v12.414a.423.423,0,0,0,.246.385.417.417,0,0,0,.45-.064l8.2-7.084a1.261,1.261,0,0,1,1.048-.285l12.78,2.34a3.346,3.346,0,0,0,2.55-.569s16.313-11.43,17.515-12.442h0a2.549,2.549,0,0,0,.082-3.757c-1.055-1.16-3.021-.913-4.333.065-1.2,1.01-9.411,6.446-9.411,6.446H26.789l-.032.015a.959.959,0,0,1,.063-1.917Z" transform="translate(0 -233.489)" fill="#0060a7"/>
    <path id="パス_62" data-name="パス 62" d="M303.3,0a6.742,6.742,0,0,0-5.772,3.263,9.9,9.9,0,0,1,6.5,9.277c0,.314-.018.624-.047.931A6.753,6.753,0,0,0,303.3,0Z" transform="translate(-264.553)" fill="#0060a7"/>
    <path id="パス_63" data-name="パス 63" d="M179.837,54.451a7.717,7.717,0,1,0,7.717,7.717A7.717,7.717,0,0,0,179.837,54.451Zm3.067,7.083H180.79l-.227.354v.846h2.34v1.2h-2.34v1.813H179.11V63.935h-2.342v-1.2h2.342V61.89l-.227-.356h-2.115V60.51h1.453l-1.235-1.924h1.232l1.616,2.517,1.619-2.517h1.232l-1.235,1.924H182.9v1.024Z" transform="translate(-150.088 -49.63)" fill="#0060a7"/>
  </g>
</svg>
