<svg xmlns="http://www.w3.org/2000/svg" width="43.757" height="45" viewBox="0 0 43.757 45">
  <g id="カレンダーのフリーアイコン4" transform="translate(-7.073)">
    <path id="パス_25" data-name="パス 25" d="M122.693,8.838a2.473,2.473,0,0,0,2.473-2.473V2.473a2.473,2.473,0,0,0-4.946,0V6.364A2.473,2.473,0,0,0,122.693,8.838Z" transform="translate(-103.165)" fill="#0060a7"/>
    <path id="パス_26" data-name="パス 26" d="M336.316,8.838a2.473,2.473,0,0,0,2.473-2.473V2.473a2.473,2.473,0,0,0-4.946,0V6.364A2.473,2.473,0,0,0,336.316,8.838Z" transform="translate(-297.941)" fill="#0060a7"/>
    <path id="パス_27" data-name="パス 27" d="M44.7,41.287H43.123v2.931a4.784,4.784,0,1,1-9.567,0V41.287H24.347v2.931a4.784,4.784,0,1,1-9.567,0V41.287H13.2a6.139,6.139,0,0,0-6.132,6.147V76.616A6.139,6.139,0,0,0,13.2,82.762H44.7a6.139,6.139,0,0,0,6.132-6.147V47.434A6.139,6.139,0,0,0,44.7,41.287Zm3.148,35.329A3.156,3.156,0,0,1,44.7,79.772H13.2a3.156,3.156,0,0,1-3.148-3.156v-25.3h37.79Z" transform="translate(0 -37.762)" fill="#0060a7"/>
    <rect id="長方形_450" data-name="長方形 450" width="4.843" height="4.843" transform="translate(22.652 33.304)" fill="#0060a7"/>
    <rect id="長方形_451" data-name="長方形 451" width="4.843" height="4.843" transform="translate(22.652 25.549)" fill="#0060a7"/>
    <rect id="長方形_452" data-name="長方形 452" width="4.842" height="4.843" transform="translate(14.897 33.304)" fill="#0060a7"/>
    <rect id="長方形_453" data-name="長方形 453" width="4.842" height="4.843" transform="translate(14.897 25.549)" fill="#0060a7"/>
    <rect id="長方形_454" data-name="長方形 454" width="4.842" height="4.843" transform="translate(38.164 17.794)" fill="#0060a7"/>
    <rect id="長方形_455" data-name="長方形 455" width="4.843" height="4.843" transform="translate(30.408 17.794)" fill="#0060a7"/>
    <rect id="長方形_456" data-name="長方形 456" width="4.843" height="4.843" transform="translate(30.408 25.549)" fill="#0060a7"/>
    <rect id="長方形_457" data-name="長方形 457" width="4.842" height="4.843" transform="translate(38.164 33.304)" fill="#0060a7"/>
    <rect id="長方形_458" data-name="長方形 458" width="4.842" height="4.843" transform="translate(38.164 25.549)" fill="#0060a7"/>
    <rect id="長方形_459" data-name="長方形 459" width="4.843" height="4.843" transform="translate(30.408 33.304)" fill="#0060a7"/>
    <rect id="長方形_460" data-name="長方形 460" width="4.843" height="4.843" transform="translate(22.652 17.794)" fill="#0060a7"/>
    <rect id="長方形_461" data-name="長方形 461" width="4.842" height="4.843" transform="translate(14.897 17.794)" fill="#0060a7"/>
  </g>
</svg>
