<svg xmlns="http://www.w3.org/2000/svg" width="54.27" height="45.001" viewBox="0 0 54.27 45.001">
  <g id="吹き出しのアイコン8" transform="translate(0 -43.726)">
    <path id="パス_41" data-name="パス 41" d="M36.251,53.047V49.637A5.879,5.879,0,0,0,30.4,43.726H5.847A5.879,5.879,0,0,0,0,49.637v18.51a5.879,5.879,0,0,0,5.847,5.911H8L6.25,82.907l11.975-8.848H20.47V62.276A9.189,9.189,0,0,1,29.6,53.047Z" fill="#0060a7"/>
    <path id="パス_42" data-name="パス 42" d="M250.39,162.792H232.083a5.846,5.846,0,0,0-5.847,5.847v13.136a5.846,5.846,0,0,0,5.847,5.847h9.071l9.91,7.242-1.448-7.242h.775a5.847,5.847,0,0,0,5.847-5.847V168.639A5.847,5.847,0,0,0,250.39,162.792Z" transform="translate(-201.968 -106.137)" fill="#0060a7"/>
  </g>
</svg>
