<svg xmlns="http://www.w3.org/2000/svg" width="40.765" height="45" viewBox="0 0 40.765 45">
  <g id="人物アイコン" transform="translate(-24.092 0.001)">
    <path id="パス_33" data-name="パス 33" d="M53.97,31.2c-1.753-.655-4.31-2.57-4.31-3.761V24.314c1.013-1.127,1.784-3.416,2.242-6.01,1.068-.381,1.678-.991,2.441-3.661.81-2.844-1.22-2.747-1.22-2.747,1.643-5.438-.52-10.549-4.142-10.174-2.5-4.371-10.866,1-13.488.624a5.923,5.923,0,0,0,.624,2.623c-.911,1.731-.56,5.181-.3,6.927-.148,0-1.985.017-1.206,2.747.763,2.67,1.373,3.28,2.441,3.661.457,2.594,1.227,4.883,2.242,6.01v3.128c0,1.192-2.716,3.2-4.31,3.761-3.293,1.16-11.385,4.494-10.863,10.741C24.242,43.444,32.485,45,44.475,45s20.233-1.556,20.359-3.055C65.356,35.692,57.243,32.428,53.97,31.2Z" transform="translate(0 0)" fill="#0060a7"/>
  </g>
</svg>
