<svg xmlns="http://www.w3.org/2000/svg" width="58.961" height="45" viewBox="0 0 58.961 45">
  <g id="ルームサービスのフリー素材3" transform="translate(-1.46 -69.839)">
    <path id="パス_36" data-name="パス 36" d="M54.879,371.269H4.082c-2.254,0-4.082,1.431-4.082,3.2s1.828,3.2,4.082,3.2h50.8c2.254,0,4.082-1.431,4.082-3.2S57.134,371.269,54.879,371.269Z" transform="translate(1.46 -262.823)" fill="#0060a7"/>
    <path id="パス_37" data-name="パス 37" d="M67.805,78.309a4.974,4.974,0,0,0,1.589-3.688,4.313,4.313,0,1,0-8.574,0,4.974,4.974,0,0,0,1.589,3.688c-12.938,1.5-23.026,13.707-23.026,28.538H90.831C90.831,92.016,80.743,79.813,67.805,78.309ZM54.29,102.151H45.932c0-9.362,6.318-17.066,14.454-18.125Z" transform="translate(-34.167)" fill="#0060a7"/>
  </g>
</svg>
