<svg xmlns="http://www.w3.org/2000/svg" width="49.682" height="45" viewBox="0 0 49.682 45">
  <g id="ベッドのフリーアイコン5" transform="translate(0 -24.124)">
    <path id="パス_56" data-name="パス 56" d="M74.307,34.1V31.121A2.357,2.357,0,0,1,76.7,28.8h7.657a2.357,2.357,0,0,1,2.393,2.318V34.1a2.233,2.233,0,0,1-.28,1.066h2.349a2.233,2.233,0,0,1-.28-1.066V31.121A2.357,2.357,0,0,1,90.931,28.8h7.657a2.357,2.357,0,0,1,2.393,2.318V34.1a2.234,2.234,0,0,1-.28,1.066h5.208V27.11a3.036,3.036,0,0,0-3.083-2.986H72.462a3.036,3.036,0,0,0-3.083,2.986v8.052h5.208A2.236,2.236,0,0,1,74.307,34.1Z" transform="translate(-62.803 0)" fill="#0060a7"/>
    <path id="パス_57" data-name="パス 57" d="M46.338,155.132H10.108L3.736,171.18H52.71Z" transform="translate(-3.382 -118.126)" fill="#0060a7"/>
    <path id="パス_58" data-name="パス 58" d="M0,336.62v5.138a3.238,3.238,0,0,0,3.275,3.2H46.407a3.237,3.237,0,0,0,3.275-3.2V336.62Z" transform="translate(0 -281.833)" fill="#0060a7"/>
    <path id="パス_59" data-name="パス 59" d="M65.072,444.952H70.81l.522-4.495H64.55Z" transform="translate(-58.431 -375.828)" fill="#0060a7"/>
    <path id="パス_60" data-name="パス 60" d="M376.429,444.952h5.737l.522-4.495h-6.781Z" transform="translate(-339.124 -375.828)" fill="#0060a7"/>
  </g>
</svg>
