<svg xmlns="http://www.w3.org/2000/svg" width="38.689" height="45" viewBox="0 0 38.689 45">
  <g id="食事のフリーアイコン12" transform="translate(-35.904)">
    <path id="パス_34" data-name="パス 34" d="M50.295.205A1.721,1.721,0,0,0,48.6,2.04v8.738c0,.994-.5,1.469-1.266,1.469a1.165,1.165,0,0,1-1.112-1.291l-.038-9.077a1.884,1.884,0,0,0-3.769,0v9.077a1.194,1.194,0,0,1-1.151,1.291c-.765,0-1.265-.475-1.265-1.469V2.04A1.722,1.722,0,0,0,38.3.205a1.8,1.8,0,0,0-1.664,1.769c-.11.876-.672,7.132-.734,11.13a7.78,7.78,0,0,0,4.247,7.081A3.219,3.219,0,0,1,41.995,23.1L41.355,45h5.887L46.6,23.1a3.218,3.218,0,0,1,1.843-2.914A7.781,7.781,0,0,0,52.693,13.1c-.062-4-.624-10.254-.735-11.13A1.8,1.8,0,0,0,50.295.205Z" transform="translate(0 0)" fill="#0060a7"/>
    <path id="パス_35" data-name="パス 35" d="M289.136,3.935c-4.073,0-8.394,4.445-8.394,11.428,0,4,2.955,7.247,4.247,8.415,1.263,1.143,1.843,1.6,1.843,2.914l-.64,21.9h5.887l-.64-21.9c0-1.314.581-1.771,1.844-2.914,1.29-1.168,4.246-4.415,4.246-8.415C297.53,8.38,293.21,3.935,289.136,3.935Z" transform="translate(-222.938 -3.597)" fill="#0060a7"/>
  </g>
</svg>
