<svg xmlns="http://www.w3.org/2000/svg" width="30" height="28.683" viewBox="0 0 30 28.683">
  <g id="時間経過のアイコン_2" data-name="時間経過のアイコン 2" transform="translate(0 -11.239)">
    <path id="パス_45" data-name="パス 45" d="M179.568,148.314l2.9,2.239a1.823,1.823,0,0,0,3.634-.225c0-.039-.009-.075-.012-.114l4.253-5.031a.709.709,0,1,0-1.049-.933l-4.178,4.464a1.764,1.764,0,0,0-1.738.028l-2.732-1.9a.923.923,0,0,0-1.08,1.474Z" transform="translate(-168.573 -124.844)" fill="#0060a7"/>
    <path id="パス_46" data-name="パス 46" d="M25.8,15.439a14.3,14.3,0,0,0-10.141-4.2v3.476A10.871,10.871,0,1,1,5.173,22.742l1.409.878a.671.671,0,0,0,.6.064.515.515,0,0,0,.325-.444l.607-7.946a.68.68,0,0,0-.993-.617L.257,18.723A.514.514,0,0,0,0,19.21a.666.666,0,0,0,.322.511l1.8,1.12a14.342,14.342,0,1,0,23.678-5.4Z" transform="translate(0 0)" fill="#0060a7"/>
  </g>
</svg>
