<svg xmlns="http://www.w3.org/2000/svg" xmlns:xlink="http://www.w3.org/1999/xlink" width="73" height="73" viewBox="0 0 73 73">
  <defs>
    <filter id="楕円形_2" x="0" y="0" width="73" height="73" filterUnits="userSpaceOnUse">
      <feOffset input="SourceAlpha"/>
      <feGaussianBlur stdDeviation="3" result="blur"/>
      <feFlood flood-color="#fff"/>
      <feComposite operator="in" in2="blur"/>
      <feComposite in="SourceGraphic"/>
    </filter>
  </defs>
  <g id="グループ_140" data-name="グループ 140" transform="translate(9 8.604)">
    <g transform="matrix(1, 0, 0, 1, -9, -8.6)" filter="url(#楕円形_2)">
      <circle id="楕円形_2-2" data-name="楕円形 2" cx="27.5" cy="27.5" r="27.5" transform="translate(9 9)" fill="#0060a7"/>
    </g>
    <path id="パス_69" data-name="パス 69" d="M-15.957-9.608v-2.028H-6.4v2.028H-9.963V0h-2.432V-9.608ZM5.355-5.818A6.751,6.751,0,0,1,4.636-2.58,5.009,5.009,0,0,1,2.682-.543a5.521,5.521,0,0,1-2.776.7,5.511,5.511,0,0,1-2.784-.7,5.015,5.015,0,0,1-1.949-2.04,6.76,6.76,0,0,1-.716-3.233,6.774,6.774,0,0,1,.716-3.239,5,5,0,0,1,1.949-2.037,5.528,5.528,0,0,1,2.784-.7,5.521,5.521,0,0,1,2.776.7A5.009,5.009,0,0,1,4.636-9.057,6.751,6.751,0,0,1,5.355-5.818Zm-2.494,0A5.234,5.234,0,0,0,2.494-7.9,2.832,2.832,0,0,0,1.463-9.182,2.767,2.767,0,0,0-.094-9.619a2.767,2.767,0,0,0-1.557.438A2.832,2.832,0,0,0-2.682-7.9a5.234,5.234,0,0,0-.366,2.08,5.234,5.234,0,0,0,.366,2.08A2.832,2.832,0,0,0-1.651-2.455a2.767,2.767,0,0,0,1.557.438,2.767,2.767,0,0,0,1.557-.437A2.832,2.832,0,0,0,2.494-3.739,5.234,5.234,0,0,0,2.861-5.818ZM7.173,0V-11.636h4.591a4.692,4.692,0,0,1,2.256.5,3.465,3.465,0,0,1,1.423,1.392,4.164,4.164,0,0,1,.491,2.048,4.092,4.092,0,0,1-.5,2.045,3.452,3.452,0,0,1-1.446,1.381,4.885,4.885,0,0,1-2.287.494H8.776V-5.744H11.3a2.477,2.477,0,0,0,1.173-.247,1.62,1.62,0,0,0,.693-.687,2.158,2.158,0,0,0,.23-1.014,2.137,2.137,0,0,0-.23-1.014,1.592,1.592,0,0,0-.7-.676,2.558,2.558,0,0,0-1.182-.241H9.634V0Z" transform="translate(28 37.396)" fill="#fff"/>
    <path id="パス_17" data-name="パス 17" d="M1861.116,5501.949l4.441-6.017,4.441,6.017" transform="translate(-1837.556 -5484)" fill="none" stroke="#fff" stroke-linecap="round" stroke-linejoin="round" stroke-width="2"/>
  </g>
</svg>
