<svg xmlns="http://www.w3.org/2000/svg" width="32" height="32" viewBox="0 0 32 32">
  <g id="グループ_352" data-name="グループ 352" transform="translate(-1270 76)">
    <g id="グループ_351" data-name="グループ 351" transform="translate(1270 -76)">
      <circle id="楕円形_3" data-name="楕円形 3" cx="16" cy="16" r="16" fill="#0060a7"/>
      <g id="男性の人物アイコン素材" transform="translate(5.642 5.186)">
        <path id="パス_20" data-name="パス 20" d="M71.735,17.121a6.948,6.948,0,0,1,.157-2.141,7.137,7.137,0,0,0,1.376-2.571,2.707,2.707,0,0,0,1.66-2.2,1.764,1.764,0,0,0-.542-1.662c.315-1.059,1.557-5.964-2.173-6.959C70.973.033,69.887.1,68.026.281c-.926.092-1.057.289-1.768.186A6.447,6.447,0,0,1,64.584,0,3.85,3.85,0,0,0,63.1,1.677a9.06,9.06,0,0,0-.453,5.436c-.008.131-.019.262-.019.394l.221.937c0,.01,0,.019,0,.029a1.785,1.785,0,0,0-.618,1.732,2.707,2.707,0,0,0,1.661,2.2,7.139,7.139,0,0,0,1.375,2.57,6.952,6.952,0,0,1,.158,2.142c-.339,3.261-7.2,1.543-7.2,7.27,0,.883,2.959,2.423,10.358,2.423s10.358-1.54,10.358-2.423C78.936,18.664,72.073,20.382,71.735,17.121Z" transform="translate(-58.22 0)" fill="#fff"/>
      </g>
    </g>
    <g id="楕円形_4" data-name="楕円形 4" transform="translate(1270 -76)" fill="none" stroke="#0060a7" stroke-width="1">
      <circle cx="16" cy="16" r="16" stroke="none"/>
      <circle cx="16" cy="16" r="15.5" fill="none"/>
    </g>
  </g>
</svg>
